<?xml version="1.0" standalone="no"?>
<!DOCTYPE svg PUBLIC "-//W3C//DTD SVG 20010904//EN"
 "http://www.w3.org/TR/2001/REC-SVG-20010904/DTD/svg10.dtd">
<svg version="1.0" xmlns="http://www.w3.org/2000/svg"
 width="313.000000pt" height="50.000000pt" viewBox="0 0 313.000000 50.000000"
 preserveAspectRatio="xMidYMid meet">
<metadata>
Created by potrace 1.15, written by Peter Selinger 2001-2017
</metadata>
<g transform="translate(0.000000,50.000000) scale(0.100000,-0.100000)"
fill="#000000" stroke="none">
<path d="M187 465 c-169 -62 -213 -259 -84 -372 112 -98 285 -77 371 45 64 91
41 221 -51 286 -80 56 -157 69 -236 41z m177 -46 c31 -17 76 -60 92 -91 8 -15
14 -48 14 -74 0 -141 -163 -226 -303 -159 -58 28 -90 76 -95 145 -7 92 42 161
136 191 32 10 126 3 156 -12z"/>
<path d="M250 379 c0 -5 -25 -65 -55 -131 -30 -67 -53 -123 -51 -125 2 -2 30
4 63 13 55 15 64 15 115 0 31 -9 61 -16 67 -16 6 0 -19 61 -56 135 -61 122
-83 155 -83 124z"/>
<path d="M570 255 l0 -105 25 0 c24 0 25 2 25 71 l0 72 75 -72 c42 -39 84 -71
95 -71 19 0 20 7 20 105 l0 105 -25 0 c-24 0 -25 -2 -25 -71 l0 -71 -77 71
c-108 98 -113 97 -113 -34z"/>
<path d="M862 337 c-18 -19 -22 -35 -22 -85 0 -87 18 -102 122 -102 103 0 118
13 118 105 0 92 -15 105 -118 105 -69 0 -81 -3 -100 -23z m163 -82 l0 -60 -65
0 -65 0 -3 49 c-5 74 -2 77 70 74 l63 -3 0 -60z"/>
<path d="M1110 255 l0 -105 25 0 c23 0 25 4 25 40 0 39 1 40 35 40 27 0 45 -9
79 -40 38 -35 86 -53 86 -33 0 4 -17 24 -37 45 -24 25 -32 38 -22 38 18 0 59
41 59 59 0 6 -11 23 -25 36 -22 23 -31 25 -125 25 l-100 0 0 -105z"/>
<path d="M1384 347 c-3 -8 -4 -54 -2 -103 l3 -89 99 -3 c90 -3 101 -1 122 19
20 19 24 32 24 85 0 56 -3 65 -26 83 -23 18 -41 21 -121 21 -69 0 -95 -4 -99
-13z m191 -92 l0 -60 -70 -3 -70 -3 0 66 0 66 70 -3 70 -3 0 -60z"/>
<path d="M1660 349 c0 -6 21 -30 47 -53 46 -42 47 -44 44 -94 -2 -50 -1 -52
23 -52 24 0 26 3 26 49 0 47 3 52 50 93 27 24 50 49 50 56 0 23 -34 12 -79
-27 l-46 -38 -40 38 c-38 37 -75 51 -75 28z"/>
<path d="M1930 255 l0 -105 25 0 c24 0 25 2 25 71 l0 71 78 -71 c107 -98 112
-97 112 35 0 104 0 105 -22 102 -21 -3 -23 -9 -26 -71 l-3 -68 -75 70 c-42 39
-85 71 -95 71 -17 0 -19 -9 -19 -105z"/>
<path d="M2297 338 c-37 -61 -97 -171 -97 -179 0 -19 49 -9 55 11 5 17 15 20
70 20 55 0 65 -3 70 -20 7 -22 45 -28 45 -6 0 24 -97 191 -113 194 -9 2 -22
-7 -30 -20z"/>
<path d="M2474 347 c-3 -8 -4 -54 -2 -103 3 -84 4 -89 26 -92 21 -3 22 0 22
65 l1 68 36 -67 c46 -88 62 -89 105 -5 l33 62 3 -63 c3 -59 5 -63 25 -60 21 3
22 8 22 103 l0 100 -28 0 c-25 0 -33 -9 -67 -72 l-38 -73 -41 75 c-35 62 -46
75 -67 75 -13 0 -27 -6 -30 -13z"/>
<path d="M2882 344 c-19 -13 -22 -24 -22 -89 0 -98 9 -105 142 -105 91 0 98 1
98 20 0 19 -7 20 -95 20 l-96 0 3 63 3 62 93 3 c84 2 92 4 92 22 0 19 -7 20
-98 20 -72 0 -103 -4 -120 -16z"/>
</g>
</svg>
