<?xml version="1.0" standalone="no"?>
<!DOCTYPE svg PUBLIC "-//W3C//DTD SVG 20010904//EN"
 "http://www.w3.org/TR/2001/REC-SVG-20010904/DTD/svg10.dtd">
<svg version="1.0" xmlns="http://www.w3.org/2000/svg"
 width="150.000000pt" height="150.000000pt" viewBox="0 0 150.000000 150.000000"
 preserveAspectRatio="xMidYMid meet">
<metadata>
Created by potrace 1.15, written by Peter Selinger 2001-2017
</metadata>
<g transform="translate(0.000000,150.000000) scale(0.100000,-0.100000)"
fill="#000000" stroke="none">
<path d="M578 1435 c-132 -37 -219 -86 -316 -179 -100 -95 -159 -198 -197
-338 -44 -165 -27 -320 54 -488 85 -175 260 -317 457 -371 102 -28 296 -24
390 9 221 75 388 239 462 455 37 107 42 293 13 402 -105 380 -495 611 -863
510z m329 -66 c172 -41 339 -175 423 -339 81 -159 80 -396 -4 -570 -164 -342
-616 -458 -939 -240 -112 75 -216 224 -253 360 -23 87 -23 243 0 330 69 254
270 430 541 473 44 8 176 -1 232 -14z"/>
<path d="M691 1037 c-19 -39 -99 -202 -178 -361 -79 -159 -142 -291 -140 -292
2 -2 86 19 188 46 l186 49 196 -53 c109 -29 197 -51 197 -50 0 2 -15 29 -34
61 -18 32 -55 99 -81 148 -26 50 -78 144 -115 210 -37 66 -90 164 -119 218
-29 53 -55 97 -59 97 -4 0 -22 -33 -41 -73z m59 -86 c0 -5 29 -60 63 -122 35
-63 83 -150 107 -194 23 -44 52 -95 63 -114 l20 -34 -29 5 c-16 3 -73 17 -127
32 l-98 26 -120 -31 c-66 -17 -122 -29 -124 -27 -7 7 228 477 237 472 4 -3 8
-9 8 -13z"/>
</g>
</svg>
